<svg width="34" height="34" viewBox="0 0 34 34" fill="none" xmlns="http://www.w3.org/2000/svg">
    <path fill-rule="evenodd" clip-rule="evenodd" d="M17.0141 0.5C7.60573 0.5 0 8.06247 0 17.4183C0 24.8969 4.87325 31.2273 11.6337 33.4679C12.479 33.6363 12.7886 33.1039 12.7886 32.656C12.7886 32.2637 12.7607 30.9193 12.7607 29.5186C8.02782 30.5271 7.04224 27.5018 7.04224 27.5018C6.28163 25.5411 5.15465 25.0371 5.15465 25.0371C3.60557 24.0007 5.26749 24.0007 5.26749 24.0007C6.98582 24.1128 7.88747 25.7373 7.88747 25.7373C9.40834 28.3141 11.8591 27.586 12.845 27.1378C12.9857 26.0453 13.4367 25.2891 13.9156 24.869C10.1407 24.4768 6.16914 23.0203 6.16914 16.5218C6.16914 14.6731 6.84477 13.1606 7.91533 11.9843C7.74643 11.5642 7.15473 9.82727 8.08459 7.5025C8.08459 7.5025 9.52118 7.05425 12.7604 9.23912C14.1472 8.86879 15.5774 8.6804 17.0141 8.67881C18.4507 8.67881 19.9151 8.87509 21.2674 9.23912C24.507 7.05425 25.9435 7.5025 25.9435 7.5025C26.8734 9.82727 26.2814 11.5642 26.1124 11.9843C27.2112 13.1606 27.859 14.6731 27.859 16.5218C27.859 23.0203 23.8874 24.4486 20.0844 24.869C20.7043 25.4011 21.2392 26.4094 21.2392 28.0061C21.2392 30.2748 21.2113 32.0956 21.2113 32.6556C21.2113 33.1039 21.5213 33.6363 22.3662 33.4682C29.1267 31.227 33.9999 24.8969 33.9999 17.4183C34.0278 8.06247 26.3942 0.5 17.0141 0.5Z" fill="black"/>
</svg>
