<svg xmlns="http://www.w3.org/2000/svg" width="172" height="34" viewBox="0 0 172 34" fill="none">
  <path d="M10.2498 16.8167C10.1712 18.1763 11.2356 19.3452 12.6215 19.4231C12.6703 19.4255 12.7188 19.4271 12.7665 19.4271C14.0997 19.4271 15.2037 18.4039 15.2796 17.0969C15.3585 15.7375 14.2948 14.5684 12.9078 14.4912C11.5128 14.4113 10.3288 15.463 10.2498 16.8167Z" fill="#0538AF"/>
  <path d="M0.860012 16.1858C0.411435 16.1606 0.0262912 16.4972 0.00138565 16.9375C-0.0246201 17.3773 0.318557 17.7551 0.767269 17.78C1.21626 17.805 1.60126 17.4682 1.627 17.0284C1.6519 16.5876 1.309 16.2108 0.860012 16.1858Z" fill="#0538AF"/>
  <path d="M10.0899 2.48677C10.4912 2.28857 10.6531 1.8084 10.4507 1.41442C10.2479 1.02112 9.75873 0.86232 9.35667 1.06106C8.95556 1.25926 8.79402 1.73944 8.99643 2.13301C9.19884 2.52697 9.68801 2.68497 10.0899 2.48677Z" fill="#0538AF"/>
  <path d="M12.6452 6.8559C13.2662 6.5495 13.5156 5.80757 13.2029 5.19921C12.8901 4.59085 12.1333 4.34598 11.5127 4.65238C10.8923 4.95892 10.6424 5.70085 10.9555 6.30934C11.2682 6.91797 12.0246 7.16298 12.6452 6.8559Z" fill="#0538AF"/>
  <path d="M4.04727 9.86005C4.52612 10.1679 5.16843 10.0372 5.48244 9.56755C5.79602 9.09856 5.66256 8.46861 5.18398 8.16113C4.70486 7.85325 4.06296 7.98425 3.74895 8.45364C3.43495 8.92276 3.56884 9.55271 4.04727 9.86005Z" fill="#0538AF"/>
  <path d="M5.57815 15.741C4.88465 15.7021 4.29022 16.2222 4.25018 16.9026C4.21068 17.5833 4.74141 18.1658 5.43505 18.205C6.1291 18.2436 6.72409 17.7234 6.7633 17.043C6.80265 16.3623 6.27221 15.7793 5.57815 15.741Z" fill="#0538AF"/>
  <path d="M4.18471 24.0314C3.6738 24.2837 3.46836 24.8951 3.72609 25.396C3.9834 25.8973 4.60687 26.0984 5.1175 25.8461C5.62855 25.5931 5.83426 24.9825 5.5764 24.481C5.31909 23.9803 4.69617 23.7785 4.18471 24.0314Z" fill="#0538AF"/>
  <path d="M9.07281 13.1922C9.75668 13.632 10.6746 13.4449 11.1225 12.7741C11.5711 12.1042 11.3802 11.2041 10.6965 10.765C10.0128 10.3249 9.09524 10.5123 8.64694 11.1821C8.19822 11.853 8.38921 12.7526 9.07281 13.1922Z" fill="#0538AF"/>
  <path d="M24.5832 6.75782C25.1644 7.13141 25.9443 6.9722 26.3253 6.40217C26.7066 5.8328 26.5448 5.06793 25.9635 4.69394C25.3827 4.32007 24.6022 4.47887 24.2212 5.04932C23.8399 5.61868 24.0024 6.38395 24.5832 6.75782Z" fill="#0538AF"/>
  <path d="M27.1649 2.40299C27.5404 2.6449 28.0457 2.54168 28.2922 2.17322C28.5384 1.80434 28.4336 1.30959 28.0576 1.06768C27.6821 0.825627 27.1773 0.928975 26.9301 1.29731C26.6834 1.66632 26.7888 2.16093 27.1649 2.40299Z" fill="#0538AF"/>
  <path d="M24.7813 14.4658C23.3864 14.3864 22.2015 15.4378 22.1234 16.7909C22.0445 18.1508 23.1083 19.3199 24.4946 19.3973C24.5429 19.3999 24.5916 19.4012 24.6397 19.4012C25.9729 19.4012 27.0767 18.3781 27.1524 17.0721C27.1908 16.413 26.9648 15.779 26.5169 15.2874C26.0697 14.7946 25.4527 14.5031 24.7813 14.4658Z" fill="#0538AF"/>
  <path d="M13.4727 13.0212C13.9031 13.859 14.7655 14.38 15.7238 14.38C16.1134 14.38 16.505 14.2883 16.8553 14.1154C18.0957 13.5025 18.5962 12.0143 17.9713 10.7981C17.5403 9.95975 16.6782 9.43936 15.7201 9.43936C15.3306 9.43936 14.939 9.53111 14.5886 9.70354C13.3485 10.3165 12.8477 11.8044 13.4727 13.0212Z" fill="#0538AF"/>
  <path d="M33.2179 9.85749C33.7285 9.60491 33.9347 8.99399 33.6769 8.49236C33.4191 7.99113 32.7962 7.78997 32.2851 8.04253C31.7739 8.29484 31.5682 8.90603 31.8261 9.40712C32.084 9.90808 32.7065 10.1095 33.2179 9.85749Z" fill="#0538AF"/>
  <path d="M26.8298 10.6442C26.0992 11.0049 25.8059 11.8778 26.1736 12.5937C26.5417 13.3097 27.4317 13.5972 28.1619 13.2368C28.8919 12.8759 29.1858 12.003 28.8181 11.287C28.4501 10.5712 27.5596 10.283 26.8298 10.6442Z" fill="#0538AF"/>
  <path d="M18.6068 2.03074C19.1782 2.06258 19.6677 1.63447 19.7003 1.07374C19.7327 0.513688 19.2959 0.033379 18.7246 0.00166641C18.153 -0.030178 17.6632 0.398202 17.6307 0.958661C17.5985 1.51886 18.0351 1.9989 18.6068 2.03074Z" fill="#0538AF"/>
  <path d="M18.595 8.42409C19.4113 8.46956 20.1108 7.85743 20.1573 7.05694C20.2037 6.25645 19.5794 5.57012 18.7627 5.52492C17.9469 5.47945 17.2475 6.09131 17.2008 6.89207C17.1545 7.69228 17.7788 8.37822 18.595 8.42409Z" fill="#0538AF"/>
  <path d="M10.5729 23.2447C11.3035 22.8838 11.5971 22.0109 11.2296 21.2951C10.8613 20.5794 9.97094 20.2909 9.24111 20.6522C8.511 21.0129 8.21723 21.8851 8.58503 22.6014C8.95311 23.3172 9.84297 23.6051 10.5729 23.2447Z" fill="#0538AF"/>
  <path d="M19.5522 10.5422C18.7904 11.6811 19.1156 13.215 20.2769 13.9619C20.6887 14.2267 21.1655 14.3668 21.6562 14.3668C22.5097 14.3668 23.2971 13.9499 23.7649 13.2513C24.5263 12.1121 24.2011 10.5777 23.0398 9.83157C22.6279 9.56672 22.1513 9.42641 21.6606 9.42641C20.8072 9.42641 20.0195 9.84358 19.5522 10.5422Z" fill="#0538AF"/>
  <path d="M23.9306 20.8677C23.4997 20.029 22.637 19.5085 21.6794 19.5085C21.2895 19.5085 20.8977 19.5996 20.5474 19.7731C19.9468 20.0699 19.5001 20.5784 19.2894 21.2054C19.0782 21.8316 19.1287 22.5008 19.432 23.0904C19.8624 23.9284 20.7249 24.4492 21.6822 24.4492C22.0725 24.4492 22.4637 24.3578 22.8148 24.1846C24.0549 23.572 24.5555 22.0836 23.9306 20.8677Z" fill="#0538AF"/>
  <path d="M28.3298 20.6961C27.6466 20.2569 26.7283 20.444 26.28 21.1139C25.8315 21.7843 26.0229 22.6845 26.7063 23.124C27.3901 23.5634 28.3075 23.3767 28.7561 22.7058C29.2045 22.0358 29.0141 21.1356 28.3298 20.6961Z" fill="#0538AF"/>
  <path d="M33.1522 16.9862C33.1922 16.3058 32.6612 15.7224 31.9668 15.6835C31.2733 15.6449 30.6789 16.1649 30.6391 16.846C30.5994 17.526 31.1301 18.1091 31.8244 18.148C32.5179 18.1868 33.113 17.6659 33.1522 16.9862Z" fill="#0538AF"/>
  <path d="M36.6356 16.1084C36.1861 16.0837 35.8019 16.4199 35.7759 16.8603C35.7504 17.3004 36.0936 17.678 36.543 17.7029C36.9917 17.7278 37.3764 17.3913 37.4019 16.9509C37.4279 16.5106 37.0846 16.1332 36.6356 16.1084Z" fill="#0538AF"/>
  <path d="M33.3556 24.0281C32.8766 23.7202 32.2339 23.8513 31.9209 24.3206C31.6069 24.7897 31.7403 25.4199 32.2191 25.7276C32.6975 26.0354 33.3395 25.9045 33.6542 25.4349C33.9674 24.9652 33.8345 24.3359 33.3556 24.0281Z" fill="#0538AF"/>
  <path d="M10.2383 31.4857C9.86233 31.2436 9.35748 31.3467 9.1109 31.7153C8.86418 32.0843 8.96904 32.5789 9.34523 32.8208C9.72115 33.0629 10.226 32.9594 10.4722 32.5911C10.7192 32.2219 10.6142 31.7273 10.2383 31.4857Z" fill="#0538AF"/>
  <path d="M27.3127 31.4019C26.9116 31.5997 26.75 32.0797 26.9526 32.474C27.1546 32.8673 27.644 33.0257 28.0461 32.827C28.4472 32.6286 28.6093 32.1489 28.4067 31.7554C28.2045 31.3617 27.7146 31.2034 27.3127 31.4019Z" fill="#0538AF"/>
  <path d="M17.851 23.3458C18.2198 22.7941 18.3479 22.1346 18.2108 21.489C18.0737 20.8434 17.6885 20.2883 17.1259 19.9266C16.714 19.6618 16.2368 19.5215 15.746 19.5215C14.8933 19.5215 14.1051 19.9384 13.6379 20.6374C13.2689 21.1891 13.1411 21.8487 13.2786 22.4944C13.4152 23.14 13.8008 23.6951 14.3633 24.0568C14.7753 24.3217 15.252 24.4614 15.7427 24.4614C16.5957 24.4616 17.3836 24.0445 17.851 23.3458Z" fill="#0538AF"/>
  <path d="M12.8194 27.1308C12.2383 26.757 11.4585 26.9162 11.0772 27.4858C10.6959 28.0559 10.858 28.8204 11.4393 29.1944C12.0205 29.568 12.8008 29.4091 13.1818 28.8392C13.5633 28.269 13.4003 27.5044 12.8194 27.1308Z" fill="#0538AF"/>
  <path d="M18.6897 31.8575C18.1183 31.8255 17.6286 32.254 17.596 32.8142C17.5634 33.375 18 33.8547 18.5717 33.887C19.1431 33.9186 19.6332 33.4902 19.6654 32.9297C19.6976 32.3695 19.261 31.8891 18.6897 31.8575Z" fill="#0538AF"/>
  <path d="M18.7011 25.4644C17.8853 25.4192 17.1853 26.0308 17.1391 26.8313C17.0927 27.6317 17.7166 28.3179 18.533 28.3631C19.3498 28.4089 20.0492 27.7967 20.0953 26.9963C20.1422 26.1958 19.5178 25.5098 18.7011 25.4644Z" fill="#0538AF"/>
  <path d="M24.7571 27.0321C24.137 27.3391 23.8872 28.0805 24.2004 28.6894C24.5126 29.2983 25.2694 29.5424 25.8901 29.2359C26.511 28.9295 26.76 28.1875 26.4477 27.5789C26.1349 26.9703 25.3785 26.7255 24.7571 27.0321Z" fill="#0538AF"/>
  <path d="M52.5439 11.1104C54.9821 11.1104 56.6893 12.4253 56.6893 14.8641H59.8837C59.8837 10.584 56.6646 8.52757 52.4951 8.52757C47.3742 8.52757 44.399 11.2536 44.399 17.016C44.399 22.9221 47.3742 25.5044 52.4951 25.5044C56.7139 25.5044 59.8837 23.4958 59.8837 19.2157H56.8112C56.8112 21.6068 55.1286 22.9221 52.5439 22.9221C49.154 22.9221 47.5938 21.0806 47.5938 17.2552V16.7769C47.5938 13.0231 49.1787 11.1104 52.5439 11.1104Z" fill="#0538AF"/>
  <path d="M68.3285 8.81482L61.8173 25.2175H65.0363L66.3773 21.655H74.0349L75.4 25.2175H78.7653L72.2545 8.81482H68.3285ZM67.3529 19.0726L69.0601 14.5772C69.4014 13.6926 70.0111 11.7794 70.133 11.445H70.2549C70.3764 11.7796 70.9866 13.7165 71.3278 14.5772L73.0345 19.0726H67.3529Z" fill="#0538AF"/>
  <path d="M96.1809 13.788C96.1809 10.7516 94.401 8.81468 90.7187 8.81468H81.8914V25.2174H85.0127V18.8808H90.2067L93.3765 25.2174H96.791L93.2061 18.4029C95.1817 17.6377 96.1809 16.012 96.1809 13.788ZM90.4749 16.2986H85.0127V11.4211H90.4749C92.1575 11.4211 93.0354 12.3056 93.0354 13.788C93.0354 15.3425 92.0844 16.2986 90.4749 16.2986Z" fill="#0538AF"/>
  <path d="M107.133 8.81482H100.451V25.2175H107.133C112.18 25.2175 115.253 22.6353 115.253 17.0162C115.253 11.3972 112.18 8.81482 107.133 8.81482ZM112.058 17.2552C112.034 20.8419 110.303 22.611 107.133 22.611H103.572V11.4212H107.133C110.303 11.4212 112.058 13.1907 112.058 16.777V17.2552Z" fill="#0538AF"/>
  <path d="M123.424 8.81482L116.913 25.2175H120.132L121.473 21.655H129.131L130.496 25.2175H133.862L127.35 8.81482H123.424ZM122.449 19.0726L124.156 14.5772C124.497 13.6926 125.107 11.7794 125.229 11.445H125.351C125.473 11.7796 126.082 13.7165 126.424 14.5772L128.131 19.0726H122.449Z" fill="#0538AF"/>
  <path d="M148.131 18.5701C148.131 18.881 148.18 19.7179 148.18 19.8617L148.058 19.9092C147.985 19.8138 147.498 18.9768 147.229 18.5943L139.962 8.81468H136.987V25.2174H139.987V15.39C139.987 14.9838 139.938 14.1948 139.938 14.0752L140.06 14.0036C140.133 14.099 140.499 14.7927 140.888 15.3427L148.204 25.2177H151.131V8.81481H148.131L148.131 18.5701Z" fill="#0538AF"/>
  <path d="M163.563 8.52771C158.32 8.52771 155.15 11.2538 155.15 17.0161C155.15 22.7784 158.32 25.5045 163.563 25.5045C168.805 25.5045 172 22.7784 172 17.0161C172 11.2538 168.806 8.52771 163.563 8.52771ZM168.806 17.2789C168.806 21.0332 166.977 22.9221 163.563 22.9221C160.173 22.9221 158.344 21.0331 158.344 17.2789V16.7769C158.344 13.0231 160.198 11.1104 163.563 11.1104C166.952 11.1104 168.806 13.0231 168.806 16.7769V17.2789Z" fill="#0538AF"/>
</svg>