<svg width="172" height="34" viewBox="0 0 172 34" fill="none" xmlns="http://www.w3.org/2000/svg">
<g clip-path="url(#clip0_9749_7680)">
<path d="M10.2497 16.8167C10.1711 18.1763 11.2355 19.3452 12.6214 19.4231C12.6702 19.4255 12.7187 19.4271 12.7664 19.4271C14.0996 19.4271 15.2036 18.4039 15.2795 17.0969C15.3584 15.7375 14.2947 14.5684 12.9077 14.4912C11.5127 14.4113 10.3287 15.463 10.2497 16.8167Z" fill="white"/>
<path d="M0.860012 16.1858C0.411435 16.1606 0.0262912 16.4972 0.00138565 16.9375C-0.0246201 17.3773 0.318557 17.7551 0.767269 17.78C1.21626 17.805 1.60126 17.4682 1.627 17.0284C1.6519 16.5876 1.309 16.2108 0.860012 16.1858Z" fill="white"/>
<path d="M10.09 2.48676C10.4913 2.28856 10.6532 1.80839 10.4508 1.41441C10.248 1.02111 9.75879 0.862306 9.35673 1.06105C8.95562 1.25925 8.79408 1.73943 8.99649 2.133C9.1989 2.52696 9.68807 2.68496 10.09 2.48676Z" fill="white"/>
<path d="M12.6451 6.85585C13.2661 6.54945 13.5155 5.80753 13.2028 5.19917C12.89 4.59081 12.1332 4.34594 11.5126 4.65234C10.8922 4.95888 10.6423 5.70081 10.9554 6.3093C11.2681 6.91793 12.0245 7.16293 12.6451 6.85585Z" fill="white"/>
<path d="M4.04727 9.86003C4.52612 10.1679 5.16843 10.0372 5.48244 9.56753C5.79602 9.09854 5.66256 8.46859 5.18398 8.16111C4.70486 7.85323 4.06296 7.98423 3.74895 8.45362C3.43495 8.92274 3.56884 9.55269 4.04727 9.86003Z" fill="white"/>
<path d="M5.57809 15.7411C4.88459 15.7022 4.29016 16.2223 4.25012 16.9027C4.21062 17.5834 4.74135 18.1659 5.43499 18.2051C6.12904 18.2437 6.72403 17.7235 6.76324 17.0431C6.80259 16.3624 6.27215 15.7794 5.57809 15.7411Z" fill="white"/>
<path d="M4.18459 24.0314C3.67368 24.2837 3.46824 24.8951 3.72597 25.396C3.98328 25.8973 4.60675 26.0984 5.11738 25.8461C5.62843 25.5931 5.83414 24.9825 5.57628 24.481C5.31897 23.9803 4.69605 23.7785 4.18459 24.0314Z" fill="white"/>
<path d="M9.07299 13.1922C9.75686 13.632 10.6748 13.4449 11.1227 12.7741C11.5713 12.1042 11.3804 11.2041 10.6967 10.765C10.013 10.3249 9.09542 10.5123 8.64712 11.1821C8.1984 11.853 8.38939 12.7526 9.07299 13.1922Z" fill="white"/>
<path d="M24.5834 6.75784C25.1646 7.13143 25.9445 6.97222 26.3255 6.40219C26.7068 5.83282 26.545 5.06795 25.9637 4.69396C25.3829 4.32009 24.6024 4.47889 24.2214 5.04934C23.8401 5.6187 24.0026 6.38397 24.5834 6.75784Z" fill="white"/>
<path d="M27.165 2.40299C27.5405 2.6449 28.0458 2.54168 28.2923 2.17322C28.5385 1.80434 28.4337 1.30959 28.0577 1.06768C27.6822 0.825626 27.1774 0.928974 26.9302 1.29731C26.6835 1.66632 26.7889 2.16093 27.165 2.40299Z" fill="white"/>
<path d="M24.7812 14.4658C23.3863 14.3864 22.2014 15.4378 22.1233 16.7909C22.0444 18.1508 23.1082 19.3199 24.4945 19.3973C24.5428 19.3999 24.5915 19.4012 24.6396 19.4012C25.9728 19.4012 27.0766 18.3781 27.1523 17.0721C27.1907 16.413 26.9647 15.779 26.5168 15.2874C26.0696 14.7946 25.4526 14.5031 24.7812 14.4658Z" fill="white"/>
<path d="M13.4728 13.0212C13.9032 13.859 14.7656 14.38 15.7239 14.38C16.1135 14.38 16.5051 14.2883 16.8554 14.1154C18.0958 13.5025 18.5963 12.0143 17.9714 10.7981C17.5404 9.95972 16.6783 9.43933 15.7202 9.43933C15.3307 9.43933 14.9391 9.53108 14.5887 9.70351C13.3486 10.3165 12.8478 11.8044 13.4728 13.0212Z" fill="white"/>
<path d="M33.2179 9.85744C33.7285 9.60486 33.9347 8.99394 33.6769 8.49231C33.4191 7.99108 32.7962 7.78992 32.2851 8.04248C31.7739 8.29479 31.5682 8.90598 31.8261 9.40707C32.084 9.90803 32.7065 10.1095 33.2179 9.85744Z" fill="white"/>
<path d="M26.8299 10.6442C26.0993 11.0049 25.806 11.8778 26.1737 12.5937C26.5418 13.3097 27.4318 13.5972 28.162 13.2368C28.892 12.8759 29.1859 12.003 28.8182 11.287C28.4502 10.5712 27.5597 10.283 26.8299 10.6442Z" fill="white"/>
<path d="M18.6067 2.03074C19.1781 2.06258 19.6676 1.63447 19.7002 1.07374C19.7326 0.513688 19.2958 0.033379 18.7245 0.00166641C18.1529 -0.030178 17.6631 0.398202 17.6306 0.958661C17.5984 1.51886 18.035 1.9989 18.6067 2.03074Z" fill="white"/>
<path d="M18.5949 8.42413C19.4112 8.4696 20.1107 7.85747 20.1572 7.05698C20.2036 6.25649 19.5793 5.57016 18.7626 5.52496C17.9468 5.47949 17.2474 6.09135 17.2007 6.89211C17.1544 7.69232 17.7787 8.37826 18.5949 8.42413Z" fill="white"/>
<path d="M10.5727 23.2447C11.3033 22.8838 11.5969 22.0109 11.2294 21.2951C10.8611 20.5794 9.97076 20.2909 9.24093 20.6522C8.51082 21.0129 8.21705 21.8851 8.58485 22.6014C8.95293 23.3172 9.84279 23.6051 10.5727 23.2447Z" fill="white"/>
<path d="M19.5521 10.5422C18.7903 11.6811 19.1155 13.215 20.2768 13.9619C20.6886 14.2267 21.1654 14.3668 21.6561 14.3668C22.5096 14.3668 23.297 13.9499 23.7648 13.2513C24.5262 12.1121 24.201 10.5777 23.0397 9.83155C22.6278 9.5667 22.1512 9.42639 21.6605 9.42639C20.8071 9.42639 20.0194 9.84356 19.5521 10.5422Z" fill="white"/>
<path d="M23.9308 20.8677C23.4999 20.029 22.6372 19.5085 21.6796 19.5085C21.2897 19.5085 20.8979 19.5996 20.5476 19.7731C19.947 20.0699 19.5003 20.5784 19.2896 21.2054C19.0784 21.8316 19.1289 22.5008 19.4322 23.0904C19.8626 23.9284 20.7251 24.4492 21.6824 24.4492C22.0727 24.4492 22.4639 24.3578 22.815 24.1846C24.0551 23.572 24.5557 22.0836 23.9308 20.8677Z" fill="white"/>
<path d="M28.3299 20.6961C27.6467 20.2569 26.7284 20.444 26.2801 21.1139C25.8316 21.7843 26.023 22.6845 26.7064 23.124C27.3902 23.5634 28.3076 23.3767 28.7562 22.7058C29.2046 22.0358 29.0142 21.1356 28.3299 20.6961Z" fill="white"/>
<path d="M33.1524 16.9862C33.1924 16.3058 32.6614 15.7224 31.967 15.6835C31.2735 15.6449 30.6791 16.1649 30.6393 16.846C30.5996 17.526 31.1303 18.1091 31.8246 18.148C32.5181 18.1868 33.1132 17.6659 33.1524 16.9862Z" fill="white"/>
<path d="M36.6354 16.1085C36.1859 16.0838 35.8017 16.42 35.7757 16.8604C35.7502 17.3005 36.0934 17.6781 36.5428 17.703C36.9915 17.7279 37.3762 17.3914 37.4017 16.951C37.4277 16.5107 37.0844 16.1333 36.6354 16.1085Z" fill="white"/>
<path d="M33.3557 24.028C32.8767 23.7201 32.234 23.8512 31.921 24.3205C31.607 24.7896 31.7404 25.4198 32.2192 25.7275C32.6976 26.0353 33.3396 25.9044 33.6543 25.4348C33.9675 24.9651 33.8346 24.3358 33.3557 24.028Z" fill="white"/>
<path d="M10.2385 31.4857C9.86251 31.2436 9.35766 31.3467 9.11108 31.7153C8.86436 32.0843 8.96922 32.5789 9.34541 32.8208C9.72133 33.0629 10.2262 32.9594 10.4724 32.5911C10.7194 32.2219 10.6144 31.7273 10.2385 31.4857Z" fill="white"/>
<path d="M27.3128 31.4018C26.9117 31.5996 26.7501 32.0796 26.9527 32.4739C27.1547 32.8672 27.6441 33.0256 28.0462 32.8269C28.4473 32.6285 28.6094 32.1488 28.4068 31.7553C28.2046 31.3616 27.7147 31.2033 27.3128 31.4018Z" fill="white"/>
<path d="M17.8509 23.3458C18.2197 22.7941 18.3478 22.1346 18.2107 21.489C18.0736 20.8434 17.6884 20.2883 17.1258 19.9266C16.7139 19.6618 16.2367 19.5215 15.7459 19.5215C14.8932 19.5215 14.105 19.9384 13.6378 20.6374C13.2688 21.1891 13.141 21.8487 13.2785 22.4944C13.4151 23.14 13.8007 23.6951 14.3632 24.0568C14.7752 24.3217 15.2519 24.4614 15.7426 24.4614C16.5956 24.4616 17.3835 24.0445 17.8509 23.3458Z" fill="white"/>
<path d="M12.8192 27.1308C12.2381 26.757 11.4583 26.9162 11.077 27.4858C10.6957 28.0559 10.8578 28.8204 11.4391 29.1944C12.0203 29.568 12.8006 29.4091 13.1816 28.8392C13.5631 28.269 13.4001 27.5044 12.8192 27.1308Z" fill="white"/>
<path d="M18.6896 31.8574C18.1182 31.8254 17.6286 32.2539 17.596 32.8141C17.5634 33.3749 17.9999 33.8546 18.5716 33.8869C19.143 33.9185 19.6332 33.4901 19.6654 32.9296C19.6976 32.3694 19.2609 31.889 18.6896 31.8574Z" fill="white"/>
<path d="M18.7011 25.4644C17.8853 25.4192 17.1853 26.0308 17.1391 26.8313C17.0927 27.6317 17.7166 28.3179 18.533 28.3631C19.3498 28.4089 20.0492 27.7967 20.0953 26.9963C20.1422 26.1958 19.5178 25.5098 18.7011 25.4644Z" fill="white"/>
<path d="M24.7573 27.0321C24.1372 27.3391 23.8874 28.0805 24.2006 28.6894C24.5128 29.2983 25.2696 29.5424 25.8903 29.2359C26.5112 28.9295 26.7602 28.1875 26.4479 27.5789C26.1351 26.9703 25.3787 26.7255 24.7573 27.0321Z" fill="white"/>
<path d="M52.5438 11.1104C54.982 11.1104 56.6892 12.4253 56.6892 14.8641H59.8836C59.8836 10.584 56.6645 8.52759 52.495 8.52759C47.3741 8.52759 44.3989 11.2536 44.3989 17.016C44.3989 22.9221 47.3741 25.5044 52.495 25.5044C56.7138 25.5044 59.8836 23.4958 59.8836 19.2157H56.8111C56.8111 21.6068 55.1285 22.9221 52.5438 22.9221C49.1539 22.9221 47.5937 21.0806 47.5937 17.2552V16.7769C47.5937 13.0231 49.1786 11.1104 52.5438 11.1104Z" fill="white"/>
<path d="M68.3286 8.81482L61.8174 25.2175H65.0364L66.3774 21.655H74.035L75.4001 25.2175H78.7654L72.2546 8.81482H68.3286ZM67.353 19.0726L69.0602 14.5772C69.4015 13.6926 70.0112 11.7794 70.1331 11.445H70.255C70.3765 11.7796 70.9867 13.7165 71.3279 14.5772L73.0346 19.0726H67.353Z" fill="white"/>
<path d="M96.1811 13.788C96.1811 10.7516 94.4012 8.8147 90.7189 8.8147H81.8916V25.2174H85.0129V18.8808H90.2069L93.3767 25.2174H96.7912L93.2063 18.4029C95.1819 17.6377 96.1811 16.012 96.1811 13.788ZM90.4751 16.2986H85.0129V11.4211H90.4751C92.1577 11.4211 93.0356 12.3056 93.0356 13.788C93.0356 15.3425 92.0846 16.2986 90.4751 16.2986Z" fill="white"/>
<path d="M107.133 8.81482H100.451V25.2175H107.133C112.18 25.2175 115.253 22.6353 115.253 17.0162C115.253 11.3972 112.18 8.81482 107.133 8.81482ZM112.058 17.2552C112.034 20.8419 110.303 22.611 107.133 22.611H103.572V11.4212H107.133C110.303 11.4212 112.058 13.1907 112.058 16.777V17.2552Z" fill="white"/>
<path d="M123.424 8.81482L116.913 25.2175H120.132L121.473 21.655H129.131L130.496 25.2175H133.862L127.35 8.81482H123.424ZM122.449 19.0726L124.156 14.5772C124.497 13.6926 125.107 11.7794 125.229 11.445H125.351C125.473 11.7796 126.082 13.7165 126.424 14.5772L128.131 19.0726H122.449Z" fill="white"/>
<path d="M148.131 18.5701C148.131 18.881 148.18 19.7179 148.18 19.8617L148.058 19.9092C147.985 19.8138 147.498 18.9768 147.229 18.5943L139.962 8.8147H136.987V25.2174H139.987V15.39C139.987 14.9838 139.938 14.1948 139.938 14.0752L140.06 14.0036C140.133 14.099 140.499 14.7927 140.888 15.3427L148.204 25.2177H151.131V8.81483H148.131V18.5701Z" fill="white"/>
<path d="M163.563 8.52771C158.32 8.52771 155.15 11.2538 155.15 17.0161C155.15 22.7784 158.32 25.5045 163.563 25.5045C168.805 25.5045 172 22.7784 172 17.0161C172 11.2538 168.806 8.52771 163.563 8.52771ZM168.806 17.2789C168.806 21.0332 166.977 22.9221 163.563 22.9221C160.173 22.9221 158.344 21.0331 158.344 17.2789V16.7769C158.344 13.0231 160.198 11.1104 163.563 11.1104C166.952 11.1104 168.806 13.0231 168.806 16.7769V17.2789Z" fill="white"/>
</g>
<defs>
<clipPath id="clip0_9749_7680">
<rect width="172" height="34" fill="white"/>
</clipPath>
</defs>
</svg>
